#define close_hover_width 18
#define close_hover_height 18
static unsigned char close_hover_bits[] = {
   0x00, 0x00, 0x00, 0x00, 0x00, 0x00, 0x80, 0x07, 0x00, 0xe0, 0x1f, 0x00,
   0xf0, 0x3f, 0x00, 0x98, 0x67, 0x00, 0x18, 0x63, 0x00, 0x3c, 0xf0, 0x00,
   0x7c, 0xf8, 0x00, 0x7c, 0xf8, 0x00, 0x3c, 0xf0, 0x00, 0x18, 0x63, 0x00,
   0x98, 0x67, 0x00, 0xf0, 0x3f, 0x00, 0xe0, 0x1f, 0x00, 0x80, 0x07, 0x00,
   0x00, 0x00, 0x00, 0x00, 0x00, 0x00 };
