#define iconify_hover_width 18
#define iconify_hover_height 18
static unsigned char iconify_hover_bits[] = {
   0x00, 0x00, 0x00, 0x00, 0x00, 0x00, 0x80, 0x07, 0x00, 0xe0, 0x1f, 0x00,
   0xf0, 0x3f, 0x00, 0xf8, 0x7f, 0x00, 0xf8, 0x7f, 0x00, 0xfc, 0xff, 0x00,
   0x1c, 0xe0, 0x00, 0x1c, 0xe0, 0x00, 0xfc, 0xff, 0x00, 0xf8, 0x7f, 0x00,
   0xf8, 0x7f, 0x00, 0xf0, 0x3f, 0x00, 0xe0, 0x1f, 0x00, 0x80, 0x07, 0x00,
   0x00, 0x00, 0x00, 0x00, 0x00, 0x00 };
