#define max_hover_toggled_width 18
#define max_hover_toggled_height 18
static unsigned char max_hover_toggled_bits[] = {
   0x00, 0x00, 0x00, 0x00, 0x00, 0x00, 0x80, 0x07, 0x00, 0xe0, 0x1f, 0x00,
   0xf0, 0x3f, 0x00, 0x18, 0x7c, 0x00, 0x18, 0x7e, 0x00, 0x1c, 0xff, 0x00,
   0x9c, 0xef, 0x00, 0xdc, 0xe7, 0x00, 0xfc, 0xe3, 0x00, 0xf8, 0x61, 0x00,
   0xf8, 0x60, 0x00, 0xf0, 0x3f, 0x00, 0xe0, 0x1f, 0x00, 0x80, 0x07, 0x00,
   0x00, 0x00, 0x00, 0x00, 0x00, 0x00 };
