#define shade_hover_toggled_width 18
#define shade_hover_toggled_height 18
static unsigned char shade_hover_toggled_bits[] = {
   0x00, 0x00, 0x00, 0x00, 0x00, 0x00, 0x80, 0x07, 0x00, 0xe0, 0x1f, 0x00,
   0xf0, 0x3f, 0x00, 0xf8, 0x7c, 0x00, 0xf8, 0x7c, 0x00, 0xfc, 0xfc, 0x00,
   0x9c, 0xe4, 0x00, 0x1c, 0xe0, 0x00, 0x3c, 0xf0, 0x00, 0x78, 0x78, 0x00,
   0xf8, 0x7c, 0x00, 0xf0, 0x3f, 0x00, 0xe0, 0x1f, 0x00, 0x80, 0x07, 0x00,
   0x00, 0x00, 0x00, 0x00, 0x00, 0x00 };
